<?xml version="1.0" encoding="UTF-8"?>
<svg version="1.1" xmlns="http://www.w3.org/2000/svg" width="192" height="192">
<path d="M0 0 C17.53738303 14.05087789 30.69757002 35.10532247 33.44042969 57.71044922 C33.84563199 61.99997121 34.06139906 66.28638704 34.18359375 70.59375 C30.43217634 73.09469494 28.34426933 72.86144802 23.87109375 72.84375 C22.57558594 72.84890625 21.28007812 72.8540625 19.9453125 72.859375 C16.33479944 72.60442704 13.53899263 71.90469654 10.18359375 70.59375 C10.02503906 69.51738281 9.86648437 68.44101563 9.703125 67.33203125 C6.47994491 46.65372532 -1.22220487 30.73922735 -17.94921875 17.5859375 C-33.36995878 6.87125437 -50.98910724 4.85137155 -69.20703125 6.9921875 C-86.33218384 10.59502015 -101.13305388 20.87002651 -110.75390625 35.34375 C-117.03415395 45.40239188 -120.13590426 56.26174816 -121.06640625 68.08203125 C-121.81640625 70.59375 -121.81640625 70.59375 -124.01171875 71.93359375 C-127.00215854 72.63747164 -129.61991694 72.85970579 -132.69140625 72.84375 C-134.17253906 72.85148437 -134.17253906 72.85148437 -135.68359375 72.859375 C-139.3114846 72.55177328 -142.34963725 71.68851916 -145.81640625 70.59375 C-145.75779057 47.44055601 -137.43164633 26.73175285 -121.81640625 9.59375 C-120.88054687 8.53607422 -120.88054687 8.53607422 -119.92578125 7.45703125 C-88.98939452 -25.62410498 -35.01542643 -26.94542544 0 0 Z " fill="#F7B05B" transform="translate(151.81640625,47.40625)"/>
<path d="M0 0 C0.87205078 -0.01224609 1.74410156 -0.02449219 2.64257812 -0.03710938 C3.90038086 -0.04000977 3.90038086 -0.04000977 5.18359375 -0.04296875 C5.9511499 -0.04707764 6.71870605 -0.05118652 7.50952148 -0.05541992 C9.5625 0.1875 9.5625 0.1875 12.5625 2.1875 C13.3359375 4.359375 13.3359375 4.359375 13.9375 6.9375 C15.54272501 12.59245511 17.50203091 16.39587307 22.7578125 19.47265625 C28.84273845 22.28621919 34.06161763 22.90800153 40.5625 21.1875 C44.53812757 19.55609645 47.13311355 17.83157968 49.5625 14.1875 C50.2225 14.1875 50.8825 14.1875 51.5625 14.1875 C51.74425781 13.34445313 51.92601563 12.50140625 52.11328125 11.6328125 C52.36464844 10.53710938 52.61601563 9.44140625 52.875 8.3125 C53.11863281 7.22195312 53.36226563 6.13140625 53.61328125 5.0078125 C54.5625 2.1875 54.5625 2.1875 57.5625 0.1875 C59.61547852 -0.05541992 59.61547852 -0.05541992 61.94140625 -0.04296875 C62.77994141 -0.04103516 63.61847656 -0.03910156 64.48242188 -0.03710938 C65.35447266 -0.02486328 66.22652344 -0.01261719 67.125 0 C68.43887695 0.0009668 68.43887695 0.0009668 69.77929688 0.00195312 C76.28150615 0.04700307 76.28150615 0.04700307 78.5625 1.1875 C79.35730597 13.10958955 75.31297772 23.17040725 67.5625 32.1875 C64.71580404 35.05286282 61.82975849 37.80526265 58.5625 40.1875 C57.9025 40.1875 57.2425 40.1875 56.5625 40.1875 C56.0675 41.1775 56.0675 41.1775 55.5625 42.1875 C53.05078125 43.22265625 53.05078125 43.22265625 49.875 44.25 C48.83988281 44.59160156 47.80476563 44.93320313 46.73828125 45.28515625 C34.10632773 48.8743091 21.76168268 47.37435779 10.25 41 C-2.41061805 33.03283006 -7.73023322 23.52543931 -11.8359375 9.421875 C-12.43307055 6.21131547 -12.48142081 4.26313764 -11.4375 1.1875 C-7.91593642 -0.57328179 -3.87858049 0.002854 0 0 Z " fill="#F7B05B" transform="translate(62.4375,116.8125)"/>
</svg>
