<?xml version="1.0" encoding="iso-8859-1"?>
<!-- Generator: Adobe Illustrator 18.0.0, SVG Export Plug-In . SVG Version: 6.00 Build 0)  -->
<!DOCTYPE svg PUBLIC "-//W3C//DTD SVG 1.1//EN" "http://www.w3.org/Graphics/SVG/1.1/DTD/svg11.dtd">
<svg version="1.1" id="Layer_1" xmlns="http://www.w3.org/2000/svg" xmlns:xlink="http://www.w3.org/1999/xlink" x="0px" y="0px"
	 width="48px" height="48px" viewBox="0 0 48 48" style="enable-background:new 0 0 48 48;" xml:space="preserve">
<rect x="29.448" y="25.686" style="fill:#FFFFFF;" width="0.183" height="0"/>
<path style="fill:#C1272D;" d="M15.242,37H27.91c1.894,0,3.625-1.07,4.472-2.764l0.222-0.445C33.705,31.59,32.104,29,29.643,29H15
	c-1.105,0-2-0.895-2-2v-1h-2.5l-1.001,2.446C7.829,32.528,10.832,37,15.242,37z"/>
<polygon style="fill:#C1272D;" points="6.093,27 32,27 32,19 10.093,19 "/>
<path style="fill:#C1272D;" d="M34.333,9H24.23c-3.496,0-6.675,2.024-8.154,5.191L14.763,17H37c0.552,0,1,0.448,1,1
	c0,0.552-0.448,1-1,1H13.829l-3.737,8h21.574c4.44,0,8.444-2.669,10.153-6.767l0,0C44.047,14.89,40.122,9,34.333,9z"/>
</svg>