<svg xmlns="http://www.w3.org/2000/svg" width="60" height="48" viewBox="0 0 60 48">
  <path fill="#FFF" fill-rule="evenodd" d="M15.5107454,48 C8.80850044,48 4.53175681,44.2332827 4.53175681,38.9988016 C4.53175681,37.2760246 5.04274187,35.1697691 7.02149077,30.8930255 L7.10542736e-15,30.8930255 L6.44627307,17.1050571 L51.3190062,17.1050571 C52.3409763,17.1050571 53.0427419,16.3400176 53.0427419,15.4465127 C53.0427419,14.5530079 52.3409763,13.7870097 51.3190062,13.7870097 L15.000719,13.7870097 L18.1912599,6.95821683 C20.1700088,2.74474714 24.4467524,0 29.1060158,0 L44.361748,0 C53.1702485,0 59.6817129,6.0637533 59.6817129,13.9787489 C59.6817129,23.3615083 51.063993,30.8930255 41.1069745,30.8930255 L11.6174802,30.8930255 C10.7230167,32.7452265 11.7449868,34.2129903 13.9145163,34.2129903 L37.4044899,34.2129903 C41.2977551,34.2129903 44.2975154,36.9567788 44.2975154,40.4684829 C44.2975154,44.4892546 40.4052089,48 36,48 L15.5107454,48 L15.5107454,48 Z"/>
</svg>
