<?xml version="1.0" encoding="utf-8"?>
<!-- Generator: Adobe Illustrator 28.1.0, SVG Export Plug-In . SVG Version: 6.00 Build 0)  -->
<svg version="1.1" id="Layer_2_00000072979972840169752230000010409984671551412386_"
	 xmlns="http://www.w3.org/2000/svg" xmlns:xlink="http://www.w3.org/1999/xlink" x="0px" y="0px" viewBox="0 0 499 188.7"
	 style="enable-background:new 0 0 499 188.7;" xml:space="preserve">
<style type="text/css">
	.st0{fill:#111111;}
</style>
<g id="Layer_1-2">
	<g>
		<path class="st0" d="M200.9,186.5h-38.7l26.6-134.3c1.6-9-2.1-15.8-11.6-15.8h-27.7l6.6-33.6h122l-6.6,33.6h-27
			c-9.4,0-15.5,6.2-17.2,14.7L200.9,186.5L200.9,186.5z"/>
		<polygon class="st0" points="293,186.5 254.4,186.5 290.3,2.8 329,2.8 		"/>
		<path class="st0" d="M463.2,186.4h-38.8l21.2-108.2c1.5-7.6-7.7-11.4-13-6.5l-19.5,17.4l-10.2-15c-5.2-9.8-16.3-8.7-18,0.7
			l-21.8,111.6h-38.7l36-183.7h35.2L415,30.2c1.8,2.5,3.9,3.7,6.2,3.7c2.6,0,5.9-1.6,8.7-4.2l29.7-27.1H499L463.2,186.4L463.2,186.4
			z"/>
		<path class="st0" d="M64.8,188.7c-24.3,0-44-7.7-55.5-21.8c-10.2-12.4-11.9-31.6-5.4-49.6l38.1,0.2c-4,12-4.5,21.7,0.2,27.5
			c4.9,6,13,9.1,23.3,9.1c15.9,0,25.9-7.4,28.3-20.7c1.1-5.7,0.3-10.4-2.3-14c-3.2-4.4-9.2-7.2-17.9-8.3l-12.1-1.4
			c-17.5-2.1-31-9.3-39.2-20.8c-7.9-11-10.2-25.2-6.8-41.1C21.8,17.4,45.3,0,79.8,0c22.7,0,41.3,7.3,52.5,20.5
			c9.8,11.5,10.9,28.1,6.5,45.5l-38-0.2c1.7-7.1,4.2-17.4,0.3-22.2c-4.6-5.6-12.6-8.7-22.5-8.7c-14.2,0-23.6,6.4-25.7,17.5
			c-0.9,5-0.2,9.2,2.3,12.5c3.2,4.4,9.3,7.3,17.7,8.4l12.3,1.6c17.7,2.3,31.3,9.5,39.4,20.8c7.9,11,10.3,25.6,7,42.3
			C125.3,170.7,101.5,188.7,64.8,188.7"/>
	</g>
</g>
</svg>
