<svg xmlns="http://www.w3.org/2000/svg" version="1.1" xmlns:xlink="http://www.w3.org/1999/xlink" xmlns:svgjs="http://svgjs.com/svgjs" width="1024.000000pt" height="1024.000000pt"><svg version="1.0" xmlns="http://www.w3.org/2000/svg" width="1024.000000pt" height="1024.000000pt" viewBox="0 0 1024.000000 1024.000000" preserveAspectRatio="xMidYMid meet">
<metadata>
Created by potrace 1.14, written by Peter Selinger 2001-2017
</metadata>
<g transform="translate(0.000000,1024.000000) scale(0.100000,-0.100000)" fill="#000000" stroke="none">
<path d="M4770 10234 c-614 -53 -1142 -180 -1658 -400 -613 -261 -1132 -613
-1613 -1093 -838 -837 -1328 -1858 -1476 -3076 -26 -215 -26 -872 0 -1090 78
-652 249 -1223 532 -1780 252 -495 541 -892 944 -1296 837 -838 1858 -1328
3076 -1476 215 -26 872 -26 1090 0 652 78 1223 249 1780 532 495 252 892 541
1296 944 838 837 1328 1858 1476 3076 26 215 26 872 0 1090 -126 1051 -512
1955 -1177 2756 -135 161 -461 488 -620 619 -808 670 -1692 1047 -2750 1176
-128 15 -776 28 -900 18z m555 -604 c516 -25 981 -124 1445 -307 1362 -538
2376 -1690 2730 -3102 220 -875 169 -1821 -142 -2661 -344 -928 -986 -1721
-1828 -2258 -1172 -746 -2664 -904 -3970 -420 -833 309 -1568 866 -2092 1584
-719 988 -1003 2207 -797 3429 41 243 122 544 211 785 309 833 866 1568 1584
2092 711 517 1550 814 2425 857 226 11 217 11 434 1z"></path>
<path d="M4920 9259 c-868 -41 -1703 -357 -2390 -905 -173 -138 -506 -471
-642 -641 -559 -703 -868 -1523 -907 -2412 -45 -1003 275 -1981 905 -2771 138
-174 471 -506 644 -644 242 -193 535 -378 796 -502 621 -297 1290 -433 1977
-403 880 38 1714 352 2407 905 173 138 506 471 642 641 636 800 951 1764 907
2776 -34 783 -290 1544 -732 2177 -573 822 -1402 1402 -2359 1650 -262 68
-543 113 -778 125 -233 11 -308 12 -470 4z m-2449 -3154 c21 -13 48 -42 60
-62 11 -21 170 -375 353 -787 182 -411 336 -748 341 -748 5 0 139 290 297 644
388 871 374 839 419 887 22 22 63 53 92 68 70 36 197 39 268 7 55 -26 114 -76
143 -124 12 -19 168 -362 346 -762 179 -401 327 -728 331 -728 3 0 154 331
334 736 181 405 341 753 357 775 63 87 172 136 282 126 84 -8 180 -58 225
-118 19 -27 175 -362 361 -780 181 -404 332 -734 336 -733 5 0 160 342 345
760 185 417 348 775 362 795 28 40 98 79 143 79 75 0 157 -48 190 -111 7 -15
14 -53 14 -83 0 -52 -25 -111 -377 -873 -207 -450 -389 -837 -404 -859 -64
-94 -162 -138 -292 -132 -134 5 -225 64 -286 185 -16 32 -165 357 -331 723
-166 366 -305 668 -309 672 -4 5 -141 -288 -306 -650 -164 -361 -315 -691
-336 -732 -45 -90 -94 -140 -172 -176 -53 -24 -68 -26 -150 -22 -78 3 -100 8
-145 33 -108 59 -108 59 -462 838 -178 394 -328 713 -332 709 -4 -4 -151 -324
-327 -711 -176 -387 -332 -721 -347 -743 -57 -82 -154 -128 -269 -128 -116 0
-215 48 -273 133 -16 23 -199 409 -406 858 -342 742 -376 820 -376 868 0 63
18 107 58 144 65 62 170 71 243 22z"></path>
</g>
</svg><style>@media (prefers-color-scheme: light) { :root { filter: none; } }
@media (prefers-color-scheme: dark) { :root { filter: invert(100%); } }
</style></svg>